<svg width="217" height="56" viewBox="0 0 217 56" fill="none" xmlns="http://www.w3.org/2000/svg">
<g clip-path="url(#clip0)">
<path d="M29.354 6.20465H33.9055V30.5198H29.354V6.20465Z" fill="#27318A"/>
<path d="M52.1596 30.521H47.6081V20.3217C47.6081 17.9551 45.9434 16.887 44.2788 16.887C42.6141 16.887 40.9284 17.9551 40.9284 20.3217V30.521H36.3979V13.0963H40.9284V14.6251C41.7712 13.4523 43.4359 12.6146 45.1216 12.6146C48.6827 12.6146 52.1596 15.1068 52.1596 20.196V30.521Z" fill="#27318A"/>
<path d="M63.4662 26.4811V30.5231H59.1676C56.0701 30.5231 54.6372 28.8477 54.6372 26.0203V16.9938V12.9726V9.05624H59.1676V12.9726H63.4662V16.9938H59.1676V25.0569C59.1676 25.8947 59.4205 26.4811 60.4951 26.4811H63.4662Z" fill="#27318A"/>
<path d="M69.3254 22.9191C69.3254 25.0553 70.5054 26.4795 72.6547 26.4795C74.214 26.4795 75.2887 25.7674 75.7523 24.5946H80.2827C79.5663 28.2596 76.9534 30.5215 72.6547 30.5215C67.6396 30.5215 64.7949 27.3172 64.7949 22.4584V20.1965C64.7949 15.3376 67.5343 12.1333 72.6547 12.1333C77.6698 12.1333 80.5356 15.3376 80.5356 20.1965V22.9191H69.3254ZM69.3254 19.254H76.0051C75.8787 17.4739 74.6776 16.2801 72.6547 16.2801C70.7582 16.2801 69.5572 17.4739 69.3254 19.254Z" fill="#27318A"/>
<path d="M87.5788 30.5193H83.0483V13.0946H87.5788V14.9795C88.0423 13.8066 89.6016 12.7385 91.6245 12.7385H93.0574V17.1157H90.9081C89.2434 17.1157 87.5788 18.1838 87.5788 20.5503V30.5193Z" fill="#27318A"/>
<path d="M95.2021 22.687H99.859C100.091 24.6976 101.65 26.017 104.031 26.017C106.054 26.017 107.487 25.305 107.487 23.6295C107.487 22.331 106.644 21.6189 104.979 21.1582L100.934 20.0901C97.225 19.1267 95.4339 16.5297 95.4339 13.095C95.4339 8.34087 99.1425 6.20465 103.315 6.20465C108.077 6.20465 111.069 8.94822 111.533 12.9693H106.897C106.539 11.4195 104.853 10.7075 103.315 10.7075C101.397 10.7075 100.091 11.4195 100.091 13.095C100.091 14.5191 101.165 15.1056 102.472 15.4616L106.412 16.5297C110.1 17.4722 112.017 19.734 112.017 23.7551C112.017 28.0276 109.278 30.6246 104.031 30.6246C98.7843 30.5198 95.4339 27.4412 95.2021 22.687Z" fill="#27318A"/>
<path d="M122.874 32.0439C121.926 34.6618 121.673 36.6724 118.47 36.6724H115.12V32.6513H117.037C117.859 32.6513 118.112 32.2952 118.217 31.8135L118.702 30.3894L112.38 12.9646H117.143L121.083 24.1064L125.023 12.9646H129.786L122.874 32.0439Z" fill="#27318A"/>
<path d="M129.428 24.5886H133.959C134.211 25.887 135.75 26.5991 137.183 26.5991C138.025 26.5991 139.458 26.3687 139.458 25.3006C139.458 24.5886 138.974 24.2325 137.899 23.9812L134.211 23.1644C132.294 22.6827 129.913 21.2586 129.913 17.8239C129.913 14.3892 133.01 12.4833 136.593 12.4833C140.175 12.4833 143.146 14.1588 143.399 18.1799H138.742C138.51 17.1118 137.541 16.5254 136.361 16.5254C135.033 16.5254 134.317 16.9861 134.317 17.8239C134.317 18.5359 134.928 18.892 135.644 19.1224L139.564 19.9601C141.481 20.4418 143.862 21.7403 143.862 25.3006C143.862 29.1961 140.638 30.6202 137.077 30.6202C133.369 30.5155 129.555 28.6097 129.428 24.5886Z" fill="#27318A"/>
<path d="M160.57 22.9177C160.57 25.0539 161.75 26.478 163.9 26.478C165.459 26.478 166.534 25.766 166.997 24.5931H171.528C170.811 28.2582 168.198 30.5201 163.9 30.5201C158.885 30.5201 156.04 27.3158 156.04 22.4569V20.1951C156.04 15.3362 158.779 12.1319 163.9 12.1319C168.915 12.1319 171.781 15.3362 171.781 20.1951V22.9177H160.57ZM160.57 19.2526H167.25C167.124 17.4724 165.923 16.2787 163.9 16.2787C161.877 16.2787 160.802 17.4724 160.57 19.2526Z" fill="#27318A"/>
<path d="M189.776 30.521H185.246V20.3217C185.246 17.9551 183.581 16.887 182.043 16.887C180.484 16.887 178.819 17.9551 178.819 20.3217V30.521H174.289V13.0963H178.819V14.5204C179.641 13.3266 181.327 12.6146 182.759 12.6146C184.529 12.6146 186.215 13.3266 187.522 14.8764C188.828 13.3266 190.619 12.6146 193 12.6146C197.425 12.6146 200.755 15.1068 200.755 20.196V30.521H196.224V20.3217C196.224 17.9551 194.56 16.887 193 16.887C191.462 16.887 189.776 17.9551 189.776 20.3217V30.521Z" fill="#27318A"/>
<path d="M202.415 24.5958H206.966C207.198 25.8943 208.736 26.6064 210.169 26.6064C211.012 26.6064 212.445 26.376 212.445 25.3079C212.445 24.5958 211.96 24.2398 210.885 23.9885L207.198 23.1717C205.28 22.69 202.899 21.2658 202.899 17.8311C202.899 14.3964 205.997 12.4906 209.579 12.4906C213.161 12.4906 216.132 14.1661 216.385 18.1872H211.728C211.496 17.1191 210.527 16.5327 209.347 16.5327C208.02 16.5327 207.324 16.9934 207.324 17.8311C207.324 18.5432 207.914 18.8992 208.631 19.1296L212.571 19.9673C214.467 20.449 216.848 21.7475 216.848 25.3079C216.848 29.2033 213.646 30.6275 210.063 30.6275C206.481 30.5228 202.667 28.6169 202.415 24.5958Z" fill="#27318A"/>
<path d="M154.122 26.4811V30.5231H149.823C146.725 30.5231 145.292 28.8477 145.292 26.0203V16.9938V12.9726V9.05624H149.823V12.9726H154.122V16.9938H149.823V25.0569C149.823 25.8947 150.076 26.4811 151.151 26.4811H154.122Z" fill="#27318A"/>
<path d="M6.70905 6.91112L0.0292969 3.60208V46.0332L13.5152 52.7979V45.3211L6.70905 42.0121V6.91112Z" fill="#27318B"/>
<path d="M13.5054 45.3257L20.1851 48.6557V6.2037L6.69922 -0.540039V6.91577L13.5054 10.2457V45.3257Z" fill="#00A99D"/>
<path d="M29.0625 43.5052C29.0625 42.5627 29.21 41.7669 29.4839 41.1386C29.6947 40.6778 29.9897 40.238 30.3479 39.882C30.7272 39.505 31.1275 39.2328 31.549 39.0443C32.139 38.7929 32.7922 38.6882 33.5508 38.6882C34.9205 38.6882 36.0162 39.1071 36.838 39.9448C37.6388 40.7826 38.0602 41.9554 38.0602 43.4633C38.0602 44.9503 37.6598 46.1231 36.838 46.9608C36.0162 47.7985 34.9416 48.2174 33.5719 48.2174C32.2022 48.2174 31.1065 47.7985 30.2847 46.9608C29.4839 46.1231 29.0625 44.9712 29.0625 43.5052ZM31.0011 43.4423C31.0011 44.4895 31.2329 45.2853 31.7176 45.8089C32.2022 46.3535 32.8344 46.6257 33.5719 46.6257C34.3305 46.6257 34.9416 46.3535 35.4051 45.8299C35.8898 45.2853 36.1216 44.4895 36.1216 43.4214C36.1216 42.3533 35.8898 41.5784 35.4262 41.0548C34.9626 40.5312 34.3515 40.2799 33.5719 40.2799C32.7922 40.2799 32.1811 40.5312 31.6965 41.0548C31.2329 41.5784 31.0011 42.3742 31.0011 43.4423Z" fill="#27318A"/>
<path d="M39.4526 41.3673H41.1173V42.3517C41.328 42.0166 41.623 41.7443 41.9812 41.5349C42.3394 41.3464 42.7609 41.2417 43.2034 41.2417C43.983 41.2417 44.6362 41.5349 45.1841 42.1422C45.732 42.7496 46.0059 43.6083 46.0059 44.6973C46.0059 45.8073 45.732 46.666 45.1841 47.2943C44.6362 47.9016 43.962 48.2158 43.1823 48.2158C42.8241 48.2158 42.4869 48.153 42.1709 47.9854C41.8759 47.8598 41.5598 47.6084 41.2226 47.2524V50.5824H39.4526V41.3673ZM41.2016 44.6135C41.2016 45.3675 41.3491 45.912 41.6441 46.2681C41.9391 46.645 42.3184 46.8126 42.7398 46.8126C43.1402 46.8126 43.4984 46.645 43.7723 46.31C44.0462 45.9958 44.1727 45.4513 44.1727 44.6973C44.1727 43.9852 44.0462 43.4826 43.7512 43.1266C43.4773 42.7915 43.1191 42.6239 42.7187 42.6239C42.2762 42.6239 41.918 42.7915 41.623 43.1266C41.3491 43.4617 41.2016 43.9643 41.2016 44.6135Z" fill="#27318A"/>
<path d="M51.2882 45.9329L53.0583 46.2261C52.8265 46.8754 52.4683 47.378 51.9836 47.7131C51.4779 48.0482 50.8668 48.2157 50.1293 48.2157C48.9704 48.2157 48.1064 47.8388 47.5375 47.0848C47.1161 46.4775 46.8843 45.7026 46.8843 44.7811C46.8843 43.6711 47.1793 42.7915 47.7482 42.1841C48.3382 41.5558 49.0757 41.2417 49.9607 41.2417C50.9511 41.2417 51.7307 41.5558 52.3208 42.226C52.8897 42.8752 53.1636 43.8805 53.1425 45.2418H48.7175C48.7175 45.7654 48.865 46.1633 49.1389 46.4565C49.4129 46.7497 49.75 46.8963 50.1504 46.8963C50.4243 46.8963 50.6561 46.8125 50.8457 46.6659C51.0354 46.5193 51.1829 46.268 51.2882 45.9329ZM51.3936 44.1528C51.3725 43.6501 51.2461 43.2522 50.9932 42.98C50.7404 42.7286 50.4243 42.582 50.0661 42.582C49.6868 42.582 49.3707 42.7286 49.1179 43.0009C48.865 43.2941 48.7386 43.6711 48.7386 44.1528H51.3936Z" fill="#27318A"/>
<path d="M60.7105 48.0482H58.9405V44.6553C58.9405 43.9223 58.8983 43.4616 58.8141 43.2521C58.7298 43.0427 58.6244 42.8752 58.4348 42.7704C58.2662 42.6448 58.0555 42.582 57.8237 42.582C57.5076 42.582 57.2337 42.6657 56.9808 42.8333C56.749 43.0008 56.5804 43.2312 56.4751 43.5035C56.3908 43.7757 56.3486 44.2784 56.3486 45.0323V48.0482H54.5786V41.3672H56.2222V42.3516C56.8122 41.6186 57.5497 41.2416 58.4348 41.2416C58.8351 41.2416 59.1933 41.3044 59.5094 41.451C59.8466 41.5767 60.0994 41.7652 60.2469 41.9746C60.4155 42.205 60.5419 42.4563 60.6052 42.7286C60.6684 43.0008 60.7105 43.3987 60.7105 43.9014V48.0482Z" fill="#27318A"/>
<path d="M66.1025 48.0441V38.85H72.9508V40.3998H67.9779V42.4313H72.6136V44.002H67.9779V46.4943H73.1404V48.0441H66.1025Z" fill="#27318A"/>
<path d="M73.8574 48.0482L76.2807 44.6136L73.9628 41.3674H76.1332L77.3132 43.2104L78.5775 41.3674H80.6426L78.3668 44.5298L80.8533 48.0482H78.704L77.3132 45.9749L75.9435 48.0482H73.8574Z" fill="#27318A"/>
<path d="M87.7729 43.3569L86.0239 43.6711C85.9607 43.315 85.8343 43.0637 85.6236 42.8752C85.4128 42.7077 85.1389 42.6239 84.8018 42.6239C84.3593 42.6239 84.0221 42.7705 83.7482 43.0847C83.4953 43.3779 83.3478 43.9014 83.3478 44.6135C83.3478 45.3884 83.4953 45.9539 83.7482 46.289C84.0221 46.6031 84.3803 46.7707 84.8228 46.7707C85.16 46.7707 85.4339 46.6869 85.6657 46.4984C85.8764 46.289 86.0239 45.9748 86.1082 45.5141L87.8572 45.8073C87.6675 46.6031 87.3304 47.1895 86.8246 47.6084C86.2978 48.0063 85.6236 48.2157 84.7596 48.2157C83.7692 48.2157 82.9896 47.9016 82.3996 47.2942C81.8306 46.6659 81.5356 45.8282 81.5356 44.7392C81.5356 43.6292 81.8306 42.7705 82.4207 42.1632C82.9896 41.5349 83.7903 41.2417 84.7807 41.2417C85.6025 41.2417 86.2557 41.4092 86.7404 41.7652C87.2039 42.1003 87.5622 42.6449 87.7729 43.3569Z" fill="#27318A"/>
<path d="M90.8678 38.8573V42.2501C91.4367 41.5799 92.1321 41.2448 92.9328 41.2448C93.3332 41.2448 93.7125 41.3077 94.0285 41.4543C94.3657 41.6218 94.6186 41.8103 94.7871 42.0407C94.9557 42.2711 95.0611 42.5433 95.1243 42.8156C95.1875 43.1088 95.2086 43.5486 95.2086 44.135V48.0514H93.4385V44.5329C93.4385 43.8418 93.4175 43.402 93.3542 43.2135C93.27 43.025 93.1646 42.8575 92.9749 42.7528C92.8064 42.648 92.5957 42.5852 92.3428 42.5852C92.0267 42.5852 91.7739 42.669 91.5421 42.7946C91.3103 42.9413 91.1206 43.1507 91.0153 43.4439C90.9099 43.7371 90.8678 44.156 90.8678 44.7214V48.0514H89.0767V38.8573H90.8678Z" fill="#27318A"/>
<path d="M98.3291 43.4389L96.7277 43.1457C96.9173 42.4965 97.2334 42.0148 97.6759 41.7006C98.1184 41.3865 98.7716 41.2399 99.6356 41.2399C100.436 41.2399 101.026 41.3236 101.406 41.5121C101.785 41.7006 102.059 41.931 102.227 42.2242C102.375 42.5174 102.459 43.041 102.459 43.7949L102.438 45.8474C102.438 46.4338 102.459 46.8736 102.522 47.1458C102.586 47.439 102.691 47.7323 102.838 48.0464H101.068C101.026 47.9417 100.963 47.7532 100.9 47.5228C100.879 47.4181 100.858 47.3553 100.837 47.3343C100.542 47.6275 100.226 47.837 99.8674 47.9836C99.5302 48.1302 99.172 48.2139 98.7716 48.2139C98.0763 48.2139 97.5495 48.0255 97.1491 47.6485C96.7487 47.2924 96.5591 46.8108 96.5591 46.2453C96.5591 45.8683 96.6434 45.5332 96.8119 45.24C97.0016 44.9468 97.2545 44.7164 97.5916 44.5489C97.9077 44.4023 98.3713 44.2557 98.9823 44.151C99.8252 43.9834 100.394 43.8578 100.71 43.7112V43.5436C100.71 43.1876 100.626 42.9572 100.457 42.8106C100.289 42.664 99.9727 42.5802 99.5091 42.5802C99.1931 42.5802 98.9402 42.6431 98.7716 42.7687C98.582 42.8944 98.4345 43.1248 98.3291 43.4389ZM100.71 44.863C100.478 44.9259 100.12 45.0306 99.6356 45.1353C99.1509 45.24 98.8138 45.3447 98.6663 45.4285C98.4345 45.596 98.3291 45.8055 98.3291 46.0568C98.3291 46.3081 98.4134 46.5175 98.603 46.706C98.7927 46.8736 99.0245 46.9574 99.2984 46.9574C99.6356 46.9574 99.9306 46.8526 100.226 46.6641C100.436 46.4966 100.584 46.3081 100.647 46.0777C100.689 45.9102 100.71 45.6379 100.71 45.2191V44.863Z" fill="#27318A"/>
<path d="M110.311 48.0465H108.541V44.6536C108.541 43.9206 108.499 43.4599 108.415 43.2504C108.352 43.041 108.225 42.8735 108.057 42.7687C107.867 42.6431 107.678 42.5802 107.425 42.5802C107.109 42.5802 106.835 42.664 106.603 42.8316C106.35 42.9991 106.181 43.2295 106.076 43.5018C105.992 43.774 105.95 44.2767 105.95 45.0306V48.0465H104.18V41.3655H105.823V42.3499C106.413 41.6168 107.151 41.2399 108.036 41.2399C108.436 41.2399 108.794 41.3027 109.11 41.4493C109.448 41.575 109.7 41.7635 109.869 41.9729C110.038 42.2033 110.143 42.4546 110.206 42.7268C110.269 42.9991 110.311 43.397 110.311 43.8997V48.0465Z" fill="#27318A"/>
<path d="M111.932 48.4653L113.955 48.7166C113.997 48.947 114.082 49.1145 114.187 49.1983C114.377 49.324 114.63 49.3868 114.988 49.3868C115.451 49.3868 115.81 49.324 116.041 49.1983C116.189 49.0936 116.315 48.947 116.4 48.7375C116.442 48.5909 116.484 48.3187 116.484 47.9417V46.9574C115.957 47.6904 115.283 48.0464 114.461 48.0464C113.555 48.0464 112.839 47.6694 112.312 46.9155C111.911 46.3081 111.701 45.5751 111.701 44.6746C111.701 43.5646 111.975 42.7059 112.522 42.1195C113.049 41.5331 113.724 41.2399 114.545 41.2399C115.367 41.2399 116.041 41.5959 116.589 42.3289V41.3655H118.254V47.3553C118.254 48.1511 118.191 48.7375 118.043 49.1145C117.917 49.5124 117.727 49.8056 117.495 50.036C117.264 50.2664 116.948 50.4339 116.547 50.5596C116.168 50.6853 115.662 50.7481 115.051 50.7481C113.913 50.7481 113.112 50.5596 112.649 50.1617C112.164 49.7847 111.932 49.2821 111.932 48.6957C111.932 48.6328 111.932 48.5491 111.932 48.4653ZM113.534 44.5698C113.534 45.2819 113.66 45.8055 113.934 46.1196C114.208 46.4547 114.545 46.6223 114.946 46.6223C115.388 46.6223 115.746 46.4547 116.041 46.1196C116.357 45.7845 116.505 45.2819 116.505 44.6117C116.505 43.9415 116.357 43.418 116.062 43.0829C115.789 42.7478 115.43 42.5802 114.988 42.5802C114.566 42.5802 114.208 42.7478 113.934 43.0829C113.66 43.397 113.534 43.8997 113.534 44.5698Z" fill="#27318A"/>
<path d="M123.886 45.9328L125.656 46.226C125.425 46.8753 125.066 47.3779 124.582 47.713C124.097 48.0481 123.486 48.2156 122.749 48.2156C121.569 48.2156 120.705 47.8387 120.157 47.0847C119.714 46.4774 119.482 45.7025 119.482 44.781C119.482 43.671 119.777 42.7914 120.367 42.184C120.936 41.5557 121.674 41.2416 122.559 41.2416C123.57 41.2416 124.35 41.5557 124.919 42.2259C125.509 42.8751 125.783 43.8804 125.762 45.2417H121.316C121.337 45.7653 121.463 46.1632 121.737 46.4564C122.011 46.7496 122.348 46.8962 122.77 46.8962C123.044 46.8962 123.275 46.8125 123.465 46.6659C123.655 46.5193 123.802 46.2679 123.886 45.9328ZM123.992 44.1527C123.971 43.65 123.844 43.2521 123.591 42.9799C123.339 42.7285 123.044 42.5819 122.685 42.5819C122.285 42.5819 121.969 42.7285 121.716 43.0008C121.463 43.294 121.337 43.671 121.358 44.1527H123.992Z" fill="#27318A"/>
</g>
<defs>
<clipPath id="clip0">
<rect width="217" height="56" fill="white"/>
</clipPath>
</defs>
</svg>
