<?xml version="1.0" encoding="UTF-8"?>
<!DOCTYPE svg PUBLIC "-//W3C//DTD SVG 1.1//EN" "http://www.w3.org/Graphics/SVG/1.1/DTD/svg11.dtd">
<!-- Creator: CorelDRAW Home & Student 2014 -->
<svg xmlns="http://www.w3.org/2000/svg" xml:space="preserve" width="10296px" height="4812px" version="1.1" style="shape-rendering:geometricPrecision; text-rendering:geometricPrecision; image-rendering:optimizeQuality; fill-rule:evenodd; clip-rule:evenodd"
viewBox="0 2000 10296 100"
 xmlns:xlink="http://www.w3.org/1999/xlink">
 <defs>
  <style type="text/css">
   <![CDATA[
    .fil3 {fill:#00A99D;fill-rule:nonzero}
    .fil1 {fill:#27318A;fill-rule:nonzero}
    .fil2 {fill:#27318B;fill-rule:nonzero}
    .fil0 {fill:white;fill-rule:nonzero}
   ]]>
  </style>
 </defs>
 <g id="Слой_x0020_1">
  <metadata id="CorelCorpID_0Corel-Layer"/>
  <polygon class="fil0" points="-4,-1 10292,-1 10292,4812 -4,4812 "/>
  <polygon class="fil1" points="1392,1455 1608,1455 1608,2616 1392,2616 "/>
  <path class="fil1" d="M2474 2616l-216 0 0 -487c0,-113 -79,-164 -158,-164 -79,0 -159,51 -159,164l0 487 -215 0 0 -832 215 0 0 73c40,-56 119,-96 199,-96 169,0 334,119 334,362 0,0 0,493 0,493z"/>
  <path class="fil1" d="M3011 2423l0 193 -204 0c-147,0 -215,-80 -215,-215l0 -431 0 -192 0 -187 215 0 0 187 204 0 0 192 -204 0 0 385c0,40 12,68 63,68 0,0 141,0 141,0z"/>
  <path class="fil1" d="M3289 2253c0,102 56,170 158,170 74,0 125,-34 147,-90l215 0c-34,175 -158,283 -362,283 -238,0 -373,-153 -373,-385l0 -108c0,-232 130,-385 373,-385 238,0 374,153 374,385l0 130c0,0 -532,0 -532,0zm0 -175l317 0c-6,-85 -63,-142 -159,-142 -90,0 -147,57 -158,142z"/>
  <path class="fil1" d="M4155 2616l-215 0 0 -832 215 0 0 90c22,-56 96,-107 192,-107l68 0 0 209 -102 0c-79,0 -158,51 -158,164 0,0 0,476 0,476z"/>
  <path class="fil1" d="M4517 2242l221 0c11,96 85,159 198,159 96,0 164,-34 164,-114 0,-62 -40,-96 -119,-118l-192 -51c-176,-46 -261,-170 -261,-334 0,-227 176,-329 374,-329 226,0 368,131 390,323l-220 0c-17,-74 -97,-108 -170,-108 -91,0 -153,34 -153,114 0,68 51,96 113,113l187 51c175,45 266,153 266,345 0,204 -130,328 -379,328 -249,-5 -408,-152 -419,-379z"/>
  <path class="fil1" d="M5830 2689c-45,125 -57,221 -209,221l-159 0 0 -192 91 0c39,0 51,-17 56,-40l23 -68 -300 -832 226 0 187 532 187 -532 226 0 -328 911z"/>
  <path class="fil1" d="M6141 2333l215 0c12,62 85,96 153,96 40,0 108,-11 108,-62 0,-34 -23,-51 -74,-63l-175 -39c-91,-23 -204,-91 -204,-255 0,-164 147,-255 317,-255 170,0 311,80 323,272l-221 0c-11,-51 -57,-79 -113,-79 -63,0 -97,22 -97,62 0,34 29,51 63,62l186 40c91,23 204,85 204,255 0,186 -153,254 -322,254 -176,-5 -357,-96 -363,-288z"/>
  <path class="fil1" d="M7619 2253c0,102 56,170 158,170 74,0 125,-34 147,-90l215 0c-34,175 -158,283 -362,283 -238,0 -373,-153 -373,-385l0 -108c0,-232 130,-385 373,-385 238,0 374,153 374,385l0 130c0,0 -532,0 -532,0zm0 -175l317 0c-6,-85 -63,-142 -159,-142 -96,0 -147,57 -158,142z"/>
  <path class="fil1" d="M9005 2616l-215 0 0 -487c0,-113 -79,-164 -152,-164 -74,0 -153,51 -153,164l0 487 -215 0 0 -832 215 0 0 68c39,-57 119,-91 187,-91 84,0 164,34 226,108 62,-74 147,-108 260,-108 210,0 368,119 368,362l0 493 -215 0 0 -487c0,-113 -79,-164 -153,-164 -73,0 -153,51 -153,164l0 487z"/>
  <path class="fil1" d="M9605 2333l216 0c11,62 84,96 152,96 40,0 108,-11 108,-62 0,-34 -23,-51 -74,-63l-175 -39c-91,-23 -204,-91 -204,-255 0,-164 147,-255 317,-255 170,0 311,80 323,272l-221 0c-11,-51 -57,-79 -113,-79 -63,0 -96,22 -96,62 0,34 28,51 62,62l187 40c90,23 203,85 203,255 0,186 -152,254 -322,254 -170,-5 -351,-96 -363,-288z"/>
  <path class="fil1" d="M7313 2423l0 193 -204 0c-147,0 -215,-80 -215,-215l0 -431 0 -192 0 -187 215 0 0 187 204 0 0 192 -204 0 0 385c0,40 12,68 63,68 0,0 141,0 141,0z"/>
  <polygon class="fil2" points="317,1489 0,1331 0,3357 640,3680 640,3323 317,3165 "/>
  <polygon class="fil3" points="640,3323 957,3482 957,1455 317,1133 317,1489 640,1648 "/>
  <path class="fil1" d="M1378 3236c0,-45 7,-83 20,-113 10,-22 24,-43 41,-60 18,-18 37,-31 57,-40 28,-12 59,-17 95,-17 65,0 117,20 156,60 38,40 58,96 58,168 0,71 -19,127 -58,167 -39,40 -90,60 -155,60 -65,0 -117,-20 -156,-60 -38,-40 -58,-95 -58,-165zm92 -3c0,50 11,88 34,113 23,26 53,39 88,39 36,0 65,-13 87,-38 23,-26 34,-64 34,-115 0,-51 -11,-88 -33,-113 -22,-25 -51,-37 -88,-37 -37,0 -66,12 -89,37 -22,25 -33,63 -33,114z"/>
  <path id="1" class="fil1" d="M1871 3134l79 0 0 47c10,-16 24,-29 41,-39 17,-9 37,-14 58,-14 37,0 68,14 94,43 26,29 39,70 39,122 0,53 -13,94 -39,124 -26,29 -58,44 -95,44 -17,0 -33,-3 -48,-11 -14,-6 -29,-18 -45,-35l0 159 -84 0 0 -440zm83 155c0,36 7,62 21,79 14,18 32,26 52,26 19,0 36,-8 49,-24 13,-15 19,-41 19,-77 0,-34 -6,-58 -20,-75 -13,-16 -30,-24 -49,-24 -21,0 -38,8 -52,24 -13,16 -20,40 -20,71z"/>
  <path id="2" class="fil1" d="M2433 3352l84 14c-11,31 -28,55 -51,71 -24,16 -53,24 -88,24 -55,0 -96,-18 -123,-54 -20,-29 -31,-66 -31,-110 0,-53 14,-95 41,-124 28,-30 63,-45 105,-45 47,0 84,15 112,47 27,31 40,79 39,144l-210 0c0,25 7,44 20,58 13,14 29,21 48,21 13,0 24,-4 33,-11 9,-7 16,-19 21,-35zm5 -85c-1,-24 -7,-43 -19,-56 -12,-12 -27,-19 -44,-19 -18,0 -33,7 -45,20 -12,14 -18,32 -18,55l126 0z"/>
  <path id="3" class="fil1" d="M2880 3453l-84 0 0 -162c0,-35 -2,-57 -6,-67 -4,-10 -9,-18 -18,-23 -8,-6 -18,-9 -29,-9 -15,0 -28,4 -40,12 -11,8 -19,19 -24,32 -4,13 -6,37 -6,73l0 144 -84 0 0 -319 78 0 0 47c28,-35 63,-53 105,-53 19,0 36,3 51,10 16,6 28,15 35,25 8,11 14,23 17,36 3,13 5,32 5,56l0 198z"/>
  <polygon id="4" class="fil1" points="3136,3453 3136,3014 3461,3014 3461,3088 3225,3088 3225,3185 3445,3185 3445,3260 3225,3260 3225,3379 3470,3379 3470,3453 "/>
  <polygon id="5" class="fil1" points="3504,3453 3619,3289 3509,3134 3612,3134 3668,3222 3728,3134 3826,3134 3718,3285 3836,3453 3734,3453 3668,3354 3603,3453 "/>
  <path id="6" class="fil1" d="M4164 3229l-83 15c-3,-17 -9,-29 -19,-38 -10,-8 -23,-12 -39,-12 -21,0 -37,7 -50,22 -12,14 -19,39 -19,73 0,37 7,64 19,80 13,15 30,23 51,23 16,0 29,-4 40,-13 10,-10 17,-25 21,-47l83 14c-9,38 -25,66 -49,86 -25,19 -57,29 -98,29 -47,0 -84,-15 -112,-44 -27,-30 -41,-70 -41,-122 0,-53 14,-94 42,-123 27,-30 65,-44 112,-44 39,0 70,8 93,25 22,16 39,42 49,76z"/>
  <path id="7" class="fil1" d="M4311 3014l0 162c27,-32 60,-48 98,-48 19,0 37,3 52,10 16,8 28,17 36,28 8,11 13,24 16,37 3,14 4,35 4,63l0 187 -84 0 0 -168c0,-33 -1,-54 -4,-63 -4,-9 -9,-17 -18,-22 -8,-5 -18,-8 -30,-8 -15,0 -27,4 -38,10 -11,7 -20,17 -25,31 -5,14 -7,34 -7,61l0 159 -85 0 0 -439 85 0z"/>
  <path id="8" class="fil1" d="M4665 3233l-76 -14c9,-31 24,-54 45,-69 21,-15 52,-22 93,-22 38,0 66,4 84,13 18,9 31,20 39,34 7,14 11,39 11,75l-1 98c0,28 1,49 4,62 3,14 8,28 15,43l-84 0c-2,-5 -5,-14 -8,-25 -1,-5 -2,-8 -3,-9 -14,14 -29,24 -46,31 -16,7 -33,11 -52,11 -33,0 -58,-9 -77,-27 -19,-17 -28,-40 -28,-67 0,-18 4,-34 12,-48 9,-14 21,-25 37,-33 15,-7 37,-14 66,-19 40,-8 67,-14 82,-21l0 -8c0,-17 -4,-28 -12,-35 -8,-7 -23,-11 -45,-11 -15,0 -27,3 -35,9 -9,6 -16,17 -21,32zm113 68c-11,3 -28,8 -51,13 -23,5 -39,10 -46,14 -11,8 -16,18 -16,30 0,12 4,22 13,31 9,8 20,12 33,12 16,0 30,-5 44,-14 10,-8 17,-17 20,-28 2,-8 3,-21 3,-41l0 -17z"/>
  <path id="9" class="fil1" d="M5234 3453l-84 0 0 -162c0,-35 -2,-57 -6,-67 -3,-10 -9,-18 -17,-23 -9,-6 -18,-9 -30,-9 -15,0 -28,4 -39,12 -12,8 -20,19 -25,32 -4,13 -6,37 -6,73l0 144 -84 0 0 -319 78 0 0 47c28,-35 63,-53 105,-53 19,0 36,3 51,10 16,6 28,15 36,25 8,11 13,23 16,36 3,13 5,32 5,56l0 198z"/>
  <path id="10" class="fil1" d="M5311 3473l96 12c2,11 6,19 11,23 9,6 21,9 38,9 22,0 39,-3 50,-9 7,-5 13,-12 17,-22 2,-7 4,-20 4,-38l0 -47c-25,35 -57,52 -96,52 -43,0 -77,-18 -102,-54 -19,-29 -29,-64 -29,-107 0,-53 13,-94 39,-122 25,-28 57,-42 96,-42 39,0 71,17 97,52l0 -46 79 0 0 286c0,38 -3,66 -10,84 -6,19 -15,33 -26,44 -11,11 -26,19 -45,25 -18,6 -42,9 -71,9 -54,0 -92,-9 -114,-28 -23,-18 -34,-42 -34,-70 0,-3 0,-7 0,-11zm76 -186c0,34 6,59 19,74 13,16 29,24 48,24 21,0 38,-8 52,-24 15,-16 22,-40 22,-72 0,-32 -7,-57 -21,-73 -13,-16 -30,-24 -51,-24 -20,0 -37,8 -50,24 -13,15 -19,39 -19,71z"/>
  <path id="11" class="fil1" d="M5878 3352l84 14c-11,31 -28,55 -51,71 -23,16 -52,24 -87,24 -56,0 -97,-18 -123,-54 -21,-29 -32,-66 -32,-110 0,-53 14,-95 42,-124 27,-30 62,-45 104,-45 48,0 85,15 112,47 28,31 41,79 40,144l-211 0c1,25 7,44 20,58 13,14 29,21 49,21 13,0 24,-4 33,-11 9,-7 16,-19 20,-35zm5 -85c-1,-24 -7,-43 -19,-56 -12,-12 -26,-19 -43,-19 -19,0 -34,7 -46,20 -12,14 -18,32 -17,55l125 0z"/>
 </g>
</svg>
